HIERARCHY
ROOT mixamorig:Hips
{
	OFFSET -0.000008 104.274872 1.554316
	CHANNELS 6 Xposition Yposition Zposition Xrotation Yrotation Zrotation
	JOINT mixamorig:Spine
	{
		OFFSET -0.000005 10.181595 0.131519
		CHANNELS 6 Xposition Yposition Zposition Xrotation Yrotation Zrotation
		JOINT mixamorig:Spine1
		{
			OFFSET -0.000000 9.893959 -1.470707
			CHANNELS 6 Xposition Yposition Zposition Xrotation Yrotation Zrotation
			JOINT mixamorig:Spine2
			{
				OFFSET -0.000000 9.220757 -1.370641
				CHANNELS 6 Xposition Yposition Zposition Xrotation Yrotation Zrotation
				JOINT mixamorig:Neck
				{
					OFFSET 0.000001 16.740417 -2.049036
					CHANNELS 6 Xposition Yposition Zposition Xrotation Yrotation Zrotation
					JOINT mixamorig:Head
					{
						OFFSET 0.000000 9.617874 1.685006
						CHANNELS 6 Xposition Yposition Zposition Xrotation Yrotation Zrotation
						JOINT mixamorig:HeadTop_End
						{
							OFFSET 0.000002 22.037354 7.501101
							CHANNELS 6 Xposition Yposition Zposition Xrotation Yrotation Zrotation
							End Site
							{
								OFFSET 0.000168 2310.654297 -282.823242
							}
						}
					}
				}
				JOINT mixamorig:RightShoulder
				{
					OFFSET -4.569970 11.014908 -2.160885
					CHANNELS 6 Xposition Yposition Zposition Xrotation Yrotation Zrotation
					JOINT mixamorig:RightArm
					{
						OFFSET -10.592851 -0.524811 -2.232101
						CHANNELS 6 Xposition Yposition Zposition Xrotation Yrotation Zrotation
						JOINT mixamorig:RightForeArm
						{
							OFFSET -27.841511 0.000031 -0.000004
							CHANNELS 6 Xposition Yposition Zposition Xrotation Yrotation Zrotation
							JOINT mixamorig:RightHand
							{
								OFFSET -28.328831 -0.000015 0.000015
								CHANNELS 6 Xposition Yposition Zposition Xrotation Yrotation Zrotation
								JOINT mixamorig:RightHandThumb1
								{
									OFFSET -2.464806 -1.573990 2.681852
									CHANNELS 6 Xposition Yposition Zposition Xrotation Yrotation Zrotation
									JOINT mixamorig:RightHandThumb2
									{
										OFFSET -3.215179 -1.872803 1.924282
										CHANNELS 6 Xposition Yposition Zposition Xrotation Yrotation Zrotation
										JOINT mixamorig:RightHandThumb3
										{
											OFFSET -2.654831 -1.527969 1.512609
											CHANNELS 6 Xposition Yposition Zposition Xrotation Yrotation Zrotation
											JOINT mixamorig:RightHandThumb4
											{
												OFFSET -2.018814 -1.152008 1.108052
												CHANNELS 6 Xposition Yposition Zposition Xrotation Yrotation Zrotation
												End Site
												{
													OFFSET -188.809540 -114.533607 132.431396
												}
											}
										}
									}
								}
								JOINT mixamorig:RightHandIndex1
								{
									OFFSET -9.108284 -0.517868 2.259835
									CHANNELS 6 Xposition Yposition Zposition Xrotation Yrotation Zrotation
									JOINT mixamorig:RightHandIndex2
									{
										OFFSET -3.699989 0.000000 0.001215
										CHANNELS 6 Xposition Yposition Zposition Xrotation Yrotation Zrotation
										JOINT mixamorig:RightHandIndex3
										{
											OFFSET -2.850006 0.000031 -0.000522
											CHANNELS 6 Xposition Yposition Zposition Xrotation Yrotation Zrotation
											JOINT mixamorig:RightHandIndex4
											{
												OFFSET -2.772186 -0.000015 -0.000020
												CHANNELS 6 Xposition Yposition Zposition Xrotation Yrotation Zrotation
												End Site
												{
													OFFSET -277.218445 0.000000 -0.050231
												}
											}
										}
									}
								}
								JOINT mixamorig:RightHandMiddle1
								{
									OFFSET -9.532516 -0.000031 -0.000023
									CHANNELS 6 Xposition Yposition Zposition Xrotation Yrotation Zrotation
									JOINT mixamorig:RightHandMiddle2
									{
										OFFSET -3.700005 -0.000015 0.003713
										CHANNELS 6 Xposition Yposition Zposition Xrotation Yrotation Zrotation
										JOINT mixamorig:RightHandMiddle3
										{
											OFFSET -2.949974 0.000015 -0.002054
											CHANNELS 6 Xposition Yposition Zposition Xrotation Yrotation Zrotation
											JOINT mixamorig:RightHandMiddle4
											{
												OFFSET -2.946640 0.000000 -0.000156
												CHANNELS 6 Xposition Yposition Zposition Xrotation Yrotation Zrotation
												End Site
												{
													OFFSET -294.664337 0.000000 -0.113670
												}
											}
										}
									}
								}
								JOINT mixamorig:RightHandRing1
								{
									OFFSET -9.103600 -0.043076 -1.865134
									CHANNELS 6 Xposition Yposition Zposition Xrotation Yrotation Zrotation
									JOINT mixamorig:RightHandRing2
									{
										OFFSET -3.379288 0.000000 -0.001055
										CHANNELS 6 Xposition Yposition Zposition Xrotation Yrotation Zrotation
										JOINT mixamorig:RightHandRing3
										{
											OFFSET -2.889687 -0.000015 0.000379
											CHANNELS 6 Xposition Yposition Zposition Xrotation Yrotation Zrotation
											JOINT mixamorig:RightHandRing4
											{
												OFFSET -2.638809 -0.000015 0.000941
												CHANNELS 6 Xposition Yposition Zposition Xrotation Yrotation Zrotation
												End Site
												{
													OFFSET -263.880371 0.000000 0.516020
												}
											}
										}
									}
								}
								JOINT mixamorig:RightHandPinky1
								{
									OFFSET -8.076683 -0.486710 -3.806280
									CHANNELS 6 Xposition Yposition Zposition Xrotation Yrotation Zrotation
									JOINT mixamorig:RightHandPinky2
									{
										OFFSET -3.600014 -0.000015 -0.003747
										CHANNELS 6 Xposition Yposition Zposition Xrotation Yrotation Zrotation
										JOINT mixamorig:RightHandPinky3
										{
											OFFSET -2.099983 0.000000 -0.005739
											CHANNELS 6 Xposition Yposition Zposition Xrotation Yrotation Zrotation
											JOINT mixamorig:RightHandPinky4
											{
												OFFSET -2.115768 -0.000031 -0.003680
												CHANNELS 6 Xposition Yposition Zposition Xrotation Yrotation Zrotation
												End Site
												{
													OFFSET -211.577087 0.000000 -0.350686
												}
											}
										}
									}
								}
							}
						}
					}
				}
				JOINT mixamorig:LeftShoulder
				{
					OFFSET 4.570447 11.014725 -2.160855
					CHANNELS 6 Xposition Yposition Zposition Xrotation Yrotation Zrotation
					JOINT mixamorig:LeftArm
					{
						OFFSET 10.592371 -0.524597 -2.232119
						CHANNELS 6 Xposition Yposition Zposition Xrotation Yrotation Zrotation
						JOINT mixamorig:LeftForeArm
						{
							OFFSET 27.841532 -0.000031 0.000026
							CHANNELS 6 Xposition Yposition Zposition Xrotation Yrotation Zrotation
							JOINT mixamorig:LeftHand
							{
								OFFSET 28.328846 -0.000061 0.000022
								CHANNELS 6 Xposition Yposition Zposition Xrotation Yrotation Zrotation
								JOINT mixamorig:LeftHandThumb1
								{
									OFFSET 2.466141 -1.576172 2.681732
									CHANNELS 6 Xposition Yposition Zposition Xrotation Yrotation Zrotation
									JOINT mixamorig:LeftHandThumb2
									{
										OFFSET 3.217812 -1.872070 1.916482
										CHANNELS 6 Xposition Yposition Zposition Xrotation Yrotation Zrotation
										JOINT mixamorig:LeftHandThumb3
										{
											OFFSET 2.656029 -1.528778 1.514513
											CHANNELS 6 Xposition Yposition Zposition Xrotation Yrotation Zrotation
											JOINT mixamorig:LeftHandThumb4
											{
												OFFSET 2.020889 -1.154053 1.115139
												CHANNELS 6 Xposition Yposition Zposition Xrotation Yrotation Zrotation
												End Site
												{
													OFFSET 190.885437 -115.081749 130.048782
												}
											}
										}
									}
								}
								JOINT mixamorig:LeftHandIndex1
								{
									OFFSET 9.109314 -0.518021 2.259871
									CHANNELS 6 Xposition Yposition Zposition Xrotation Yrotation Zrotation
									JOINT mixamorig:LeftHandIndex2
									{
										OFFSET 3.699989 0.000000 -0.000322
										CHANNELS 6 Xposition Yposition Zposition Xrotation Yrotation Zrotation
										JOINT mixamorig:LeftHandIndex3
										{
											OFFSET 2.850006 0.000000 0.000352
											CHANNELS 6 Xposition Yposition Zposition Xrotation Yrotation Zrotation
											JOINT mixamorig:LeftHandIndex4
											{
												OFFSET 2.774864 -0.000031 -0.000027
												CHANNELS 6 Xposition Yposition Zposition Xrotation Yrotation Zrotation
												End Site
												{
													OFFSET 277.486267 0.000000 -0.009857
												}
											}
										}
									}
								}
								JOINT mixamorig:LeftHandMiddle1
								{
									OFFSET 9.533394 0.000061 0.000044
									CHANNELS 6 Xposition Yposition Zposition Xrotation Yrotation Zrotation
									JOINT mixamorig:LeftHandMiddle2
									{
										OFFSET 3.699989 -0.000015 -0.000231
										CHANNELS 6 Xposition Yposition Zposition Xrotation Yrotation Zrotation
										JOINT mixamorig:LeftHandMiddle3
										{
											OFFSET 2.949997 -0.000015 -0.000059
											CHANNELS 6 Xposition Yposition Zposition Xrotation Yrotation Zrotation
											JOINT mixamorig:LeftHandMiddle4
											{
												OFFSET 2.952896 0.000031 0.000063
												CHANNELS 6 Xposition Yposition Zposition Xrotation Yrotation Zrotation
												End Site
												{
													OFFSET 295.289337 0.000000 0.022810
												}
											}
										}
									}
								}
								JOINT mixamorig:LeftHandRing1
								{
									OFFSET 9.104523 -0.042999 -1.865074
									CHANNELS 6 Xposition Yposition Zposition Xrotation Yrotation Zrotation
									JOINT mixamorig:LeftHandRing2
									{
										OFFSET 3.150009 -0.000031 0.000043
										CHANNELS 6 Xposition Yposition Zposition Xrotation Yrotation Zrotation
										JOINT mixamorig:LeftHandRing3
										{
											OFFSET 2.949982 -0.000015 0.000040
											CHANNELS 6 Xposition Yposition Zposition Xrotation Yrotation Zrotation
											JOINT mixamorig:LeftHandRing4
											{
												OFFSET 2.644348 0.000000 0.000057
												CHANNELS 6 Xposition Yposition Zposition Xrotation Yrotation Zrotation
												End Site
												{
													OFFSET 264.434631 0.000000 0.012105
												}
											}
										}
									}
								}
								JOINT mixamorig:LeftHandPinky1
								{
									OFFSET 8.077789 -0.486847 -3.806259
									CHANNELS 6 Xposition Yposition Zposition Xrotation Yrotation Zrotation
									JOINT mixamorig:LeftHandPinky2
									{
										OFFSET 3.599953 0.000031 0.014727
										CHANNELS 6 Xposition Yposition Zposition Xrotation Yrotation Zrotation
										JOINT mixamorig:LeftHandPinky3
										{
											OFFSET 2.100021 0.000015 0.007705
											CHANNELS 6 Xposition Yposition Zposition Xrotation Yrotation Zrotation
											JOINT mixamorig:LeftHandPinky4
											{
												OFFSET 2.125504 0.000031 0.007517
												CHANNELS 6 Xposition Yposition Zposition Xrotation Yrotation Zrotation
												End Site
												{
													OFFSET 212.550781 0.000000 0.625752
												}
											}
										}
									}
								}
							}
						}
					}
				}
			}
		}
	}
	JOINT mixamorig:RightUpLeg
	{
		OFFSET -8.207787 -6.751648 -1.599560
		CHANNELS 6 Xposition Yposition Zposition Xrotation Yrotation Zrotation
		JOINT mixamorig:RightLeg
		{
			OFFSET -0.000002 -44.370117 0.345942
			CHANNELS 6 Xposition Yposition Zposition Xrotation Yrotation Zrotation
			JOINT mixamorig:RightFoot
			{
				OFFSET 0.000003 -44.423679 -3.043532
				CHANNELS 6 Xposition Yposition Zposition Xrotation Yrotation Zrotation
				JOINT mixamorig:RightToeBase
				{
					OFFSET -0.000002 -8.728671 10.710558
					CHANNELS 6 Xposition Yposition Zposition Xrotation Yrotation Zrotation
					JOINT mixamorig:RightToe_End
					{
						OFFSET -0.000001 -0.000679 9.278119
						CHANNELS 6 Xposition Yposition Zposition Xrotation Yrotation Zrotation
						End Site
						{
							OFFSET 0.000000 -0.067690 927.812134
						}
					}
				}
			}
		}
	}
	JOINT mixamorig:LeftUpLeg
	{
		OFFSET 8.207793 -6.751686 -1.599556
		CHANNELS 6 Xposition Yposition Zposition Xrotation Yrotation Zrotation
		JOINT mixamorig:LeftLeg
		{
			OFFSET -0.000004 -44.370014 0.346954
			CHANNELS 6 Xposition Yposition Zposition Xrotation Yrotation Zrotation
			JOINT mixamorig:LeftFoot
			{
				OFFSET -0.000001 -44.423672 -3.044401
				CHANNELS 6 Xposition Yposition Zposition Xrotation Yrotation Zrotation
				JOINT mixamorig:LeftToeBase
				{
					OFFSET -0.000002 -8.728669 10.710558
					CHANNELS 6 Xposition Yposition Zposition Xrotation Yrotation Zrotation
					JOINT mixamorig:LeftToe_End
					{
						OFFSET -0.000003 -0.000679 9.278133
						CHANNELS 6 Xposition Yposition Zposition Xrotation Yrotation Zrotation
						End Site
						{
							OFFSET 0.000000 -0.068021 927.813477
						}
					}
				}
			}
		}
	}
}
MOTION
Frames: 3
Frame Time: 0.033333
0.000006 104.270477 1.554256 0.000010 0.000003 -0.000113 -0.000005 10.181587 0.131522 0.000001 -0.000003 0.000084 -0.000000 9.893967 -1.470711 0.000001 0.000000 -0.000000 -0.000000 9.220802 -1.370642 0.000000 -0.000000 -0.000000 0.000001 16.740433 -2.049030 0.000000 -0.000000 -0.000000 0.000000 9.617859 1.685014 0.000000 0.000000 0.000000 0.000002 22.037384 7.501101 0.000000 -0.000000 0.000000 -4.569968 11.014880 -2.160881 0.000008 0.000001 -0.000038 -10.592873 -0.524768 -2.231914 77.334591 28.224758 -22.750284 -27.841520 0.000012 0.000551 -50.858251 108.332080 66.723025 -28.328836 0.000004 0.000025 -0.000320 -0.000044 0.000007 -2.464442 -1.573765 2.682333 -46.648317 -166.712842 -6.285532 -3.215275 -1.872586 1.924649 155.265786 31.417183 2.187120 -2.654930 -1.527875 1.513090 146.618439 26.578969 -41.633111 -2.018837 -1.151989 1.108053 -0.000003 -0.000000 0.000000 -9.108401 -0.517560 2.260099 93.185910 17.449347 -18.480726 -3.700060 0.000289 0.001484 88.997379 15.187837 -14.903714 -2.850095 0.000354 -0.000285 88.293500 11.861312 -11.514663 -2.772158 0.000001 -0.000022 -0.000004 0.000001 0.000001 -9.532602 0.000261 0.000217 90.591449 16.316092 -16.627249 -3.700086 0.000325 0.003944 87.918332 13.185292 -12.626174 -2.950062 0.000336 -0.001819 89.305502 11.776237 -11.628295 -2.946620 0.000002 -0.000159 0.000005 -0.000001 0.000001 -9.103720 -0.042763 -1.864879 91.286182 18.600413 -18.968876 -3.379349 0.000305 -0.000832 87.495229 10.858879 -10.413714 -2.889746 0.000364 0.000620 91.415108 6.980455 -7.201270 -2.638804 -0.000014 0.000944 0.000002 -0.000000 0.000001 -8.076767 -0.486384 -3.806012 87.013878 19.254913 -18.147543 -3.600035 0.000275 -0.003528 87.088587 9.253647 -8.455624 -2.100031 0.000318 -0.005489 88.738344 5.391450 -5.060353 -2.115767 -0.000054 -0.003678 -0.000002 0.000001 -0.000004 4.570446 11.014691 -2.160851 -0.000018 0.000010 -0.000021 10.592382 -0.524483 -2.232349 73.977779 -6.023693 4.539249 27.841825 0.000070 -0.000204 101.849827 -69.850637 81.389948 28.328856 -0.000028 0.000015 0.000023 -0.000089 -0.000000 2.466093 -1.576165 2.681906 -23.236915 158.051438 -42.866093 3.217854 -1.871805 1.916389 160.108691 -25.996388 26.425066 2.656096 -1.528663 1.514459 137.928553 -28.275791 49.882313 2.020883 -1.154049 1.115142 -0.000004 0.000005 0.000006 9.109371 -0.517841 2.259730 84.368457 -16.172932 14.662686 3.700035 0.000162 -0.000482 81.268302 -13.535301 11.644065 2.850058 0.000168 0.000196 79.425012 -12.105855 10.065454 2.774866 -0.000014 -0.000034 -0.000000 -0.000001 -0.000001 9.533455 0.000209 -0.000086 81.273507 -15.749819 13.531532 3.700047 0.000163 -0.000384 82.435582 -13.277867 11.640898 2.950045 0.000148 -0.000208 82.047060 -16.244056 14.158118 2.952888 -0.000015 0.000068 0.000001 0.000000 -0.000000 9.104584 -0.042852 -1.865227 79.533906 -15.439240 12.873936 3.150057 0.000175 -0.000104 83.703996 -13.615793 12.209173 2.950040 0.000166 -0.000082 85.730752 -15.009791 13.943786 2.644332 0.000014 0.000060 -0.000000 -0.000001 0.000000 8.077829 -0.486761 -3.806421 66.284787 -18.049185 12.243235 3.600017 0.000128 0.014567 65.436340 -15.549247 10.370655 2.100036 0.000135 0.007580 68.764200 -14.653370 10.402755 2.125515 -0.000003 0.007513 0.000000 -0.000001 -0.000005 -8.207786 -6.751667 -1.599560 -0.077001 -0.000003 0.000080 -0.000002 -44.370110 0.345938 0.153719 -0.000000 -0.000000 0.000000 -44.423679 -3.043532 -0.076700 0.000000 -0.000002 -0.000006 -8.728667 10.710559 -0.000009 -0.000000 -0.000000 -0.000001 -0.000679 9.278123 0.000000 -0.000000 -0.000000 8.207792 -6.751710 -1.599556 -0.074518 -0.000003 0.000081 -0.000002 -44.370014 0.346960 0.148822 0.000002 0.000000 -0.000001 -44.423664 -3.044403 -0.074314 0.000000 -0.000002 -0.000004 -8.728671 10.710558 0.000007 -0.000000 -0.000000 0.000000 -0.000680 9.278137 -0.000000 0.000000 -0.000001 
0.000006 104.270477 1.554256 0.000010 0.000003 -0.000113 -0.000005 10.181587 0.131522 0.000001 -0.000003 0.000084 -0.000000 9.893967 -1.470711 0.000001 0.000000 -0.000000 -0.000000 9.220802 -1.370642 0.000000 -0.000000 -0.000000 0.000001 16.740433 -2.049030 0.000000 -0.000000 -0.000000 0.000000 9.617859 1.685014 0.000000 0.000000 0.000000 0.000002 22.037384 7.501101 0.000000 -0.000000 0.000000 -4.569968 11.014880 -2.160881 0.000008 0.000001 -0.000038 -10.592854 -0.524811 -2.231835 77.350752 41.327344 -33.596406 -27.841536 -0.000005 0.000577 -48.742549 105.021535 61.133103 -28.328819 0.000021 0.000027 -0.000320 -0.000043 0.000009 -2.464423 -1.573744 2.682299 -50.962008 -167.203837 -18.292491 -3.215286 -1.872585 1.924647 152.254738 31.642327 6.132164 -2.654968 -1.527887 1.513079 144.966093 27.382886 -36.418630 -2.018822 -1.152016 1.108055 -0.000006 0.000002 0.000003 -9.108377 -0.517561 2.260101 91.443358 17.049791 -17.526323 -3.700065 0.000308 0.001476 87.767671 14.618347 -14.042312 -2.850092 0.000353 -0.000321 86.787280 11.992157 -11.341397 -2.772159 -0.000017 -0.000021 -0.000003 -0.000002 -0.000002 -9.532584 0.000261 0.000222 87.977911 16.289918 -15.870073 -3.700068 0.000311 0.003951 88.321490 12.544833 -12.092913 -2.950065 0.000333 -0.001810 91.385254 11.903043 -12.184895 -2.946620 -0.000000 -0.000152 -0.000000 0.000000 -0.000002 -9.103694 -0.042764 -1.864887 87.738793 18.652779 -17.899153 -3.379331 0.000314 -0.000827 88.949328 9.764132 -9.604590 -2.889752 0.000345 0.000636 96.351272 7.041584 -7.917329 -2.638811 0.000001 0.000938 -0.000001 0.000002 0.000001 -8.076748 -0.486398 -3.806028 84.183413 20.047027 -18.002043 -3.600031 0.000282 -0.003524 87.194598 8.995451 -8.226381 -2.100014 0.000317 -0.005482 90.890693 4.960286 -4.817294 -2.115765 -0.000052 -0.003676 -0.000001 -0.000001 -0.000005 4.570446 11.014691 -2.160851 -0.000018 0.000010 -0.000021 10.592414 -0.524467 -2.232368 73.457380 -18.328186 13.727577 27.841831 0.000073 -0.000197 101.903909 -73.035725 84.780160 28.328817 -0.000013 0.000023 0.000022 -0.000088 -0.000000 2.466259 -1.576041 2.681823 2.919169 171.565596 -99.590394 3.217860 -1.871862 1.916419 164.598325 -21.826366 40.166891 2.656078 -1.528688 1.514490 137.207135 -28.277904 61.021306 2.020887 -1.154065 1.115135 0.000001 0.000006 0.000004 9.109390 -0.517869 2.259723 85.292827 -19.861635 18.309261 3.700037 0.000144 -0.000465 82.697895 -13.112265 11.565580 2.850052 0.000182 0.000200 81.068697 -9.961130 8.522617 2.774887 -0.000045 -0.000025 -0.000000 -0.000000 0.000000 9.533480 0.000197 -0.000100 81.279497 -19.289747 16.589759 3.700051 0.000167 -0.000379 82.834560 -11.230061 9.911339 2.950042 0.000167 -0.000209 83.623836 -10.840628 9.705060 2.952872 -0.000015 0.000065 0.000000 -0.000000 0.000000 9.104590 -0.042875 -1.865211 78.774068 -19.077345 15.711909 3.150057 0.000194 -0.000109 84.437155 -12.203062 11.081325 2.950017 0.000186 -0.000104 86.634529 -10.273990 9.692072 2.644347 0.000030 0.000057 -0.000000 -0.000001 0.000001 8.077848 -0.486749 -3.806394 67.656780 -20.627332 14.329027 3.600004 0.000145 0.014580 68.761461 -17.216860 12.199683 2.100023 0.000159 0.007547 72.176945 -12.403486 9.415165 2.125508 -0.000013 0.007523 -0.000003 -0.000002 -0.000002 -8.207786 -6.751667 -1.599560 -0.077001 -0.000003 0.000080 -0.000002 -44.370110 0.345938 0.153719 -0.000000 -0.000000 0.000000 -44.423679 -3.043532 -0.076700 0.000000 -0.000002 -0.000006 -8.728667 10.710559 -0.000009 -0.000000 -0.000000 -0.000001 -0.000679 9.278123 0.000000 -0.000000 -0.000000 8.207792 -6.751710 -1.599556 -0.074518 -0.000003 0.000081 -0.000002 -44.370014 0.346960 0.148822 0.000002 0.000000 -0.000001 -44.423664 -3.044403 -0.074314 0.000000 -0.000002 -0.000004 -8.728671 10.710558 0.000007 -0.000000 -0.000000 0.000000 -0.000680 9.278137 -0.000000 0.000000 -0.000001 
0.000006 104.270477 1.554256 0.000010 0.000003 -0.000113 -0.000005 10.181587 0.131522 0.000001 -0.000003 0.000084 -0.000000 9.893967 -1.470711 0.000001 0.000000 -0.000000 -0.000000 9.220802 -1.370642 0.000000 -0.000000 -0.000000 0.000001 16.740433 -2.049030 0.000000 -0.000000 -0.000000 0.000000 9.617859 1.685014 0.000000 0.000000 0.000000 0.000002 22.037384 7.501101 0.000000 -0.000000 0.000000 -4.569968 11.014880 -2.160881 0.000008 0.000001 -0.000038 -10.592844 -0.524811 -2.231814 77.284731 46.450300 -37.872361 -27.841524 -0.000002 0.000539 -47.009552 102.886391 57.237853 -28.328842 0.000008 0.000029 -0.000319 -0.000046 0.000006 -2.464428 -1.573805 2.682326 -45.742777 -161.438228 -4.751486 -3.215277 -1.872605 1.924664 152.614157 29.788706 -6.800152 -2.654958 -1.527882 1.513054 139.882356 28.328225 -37.025093 -2.018837 -1.152001 1.108072 -0.000003 -0.000002 -0.000000 -9.108387 -0.517558 2.260101 92.508451 15.916692 -16.668027 -3.700071 0.000319 0.001502 90.740907 13.632568 -13.784380 -2.850078 0.000360 -0.000279 90.047520 11.080453 -11.088661 -2.772159 0.000000 -0.000018 0.000000 -0.000002 -0.000002 -9.532599 0.000276 0.000213 89.384090 14.064606 -14.053819 -3.700077 0.000327 0.003954 89.992469 11.518279 -11.422744 -2.950051 0.000341 -0.001806 91.587653 11.600460 -11.916838 -2.946620 0.000013 -0.000152 -0.000001 0.000002 0.000001 -9.103714 -0.042744 -1.864889 88.967333 15.855815 -15.532719 -3.379318 0.000295 -0.000824 90.222359 10.636953 -10.695699 -2.889762 0.000335 0.000644 96.433733 8.554930 -9.621390 -2.638815 -0.000000 0.000939 -0.000001 0.000000 -0.000001 -8.076764 -0.486379 -3.806041 84.628305 18.160269 -16.417275 -3.600053 0.000267 -0.003521 87.247368 10.074829 -9.258653 -2.100029 0.000320 -0.005477 90.912816 6.448227 -6.326180 -2.115769 -0.000053 -0.003681 0.000001 -0.000002 -0.000003 4.570446 11.014691 -2.160851 -0.000018 0.000010 -0.000021 10.592453 -0.524469 -2.232402 73.319642 -30.008419 22.563747 27.841824 0.000057 -0.000185 102.054159 -75.794083 87.791031 28.328833 -0.000028 0.000025 0.000021 -0.000088 -0.000000 2.466277 -1.576008 2.681810 8.677567 175.857987 -111.371179 3.217875 -1.871853 1.916419 162.961538 -20.634765 46.158637 2.656102 -1.528692 1.514477 139.656222 -27.419200 58.112452 2.020899 -1.154053 1.115147 0.000001 0.000001 0.000002 9.109404 -0.517864 2.259732 89.043236 -20.703024 20.354708 3.700054 0.000165 -0.000474 84.223466 -13.347226 12.090465 2.850057 0.000187 0.000190 81.643136 -10.043988 8.680881 2.774894 -0.000043 -0.000024 0.000004 -0.000000 0.000000 9.533480 0.000186 -0.000091 84.091800 -19.880806 17.954785 3.700029 0.000167 -0.000369 84.980128 -11.217121 10.277879 2.950050 0.000170 -0.000208 84.782182 -10.341656 9.447171 2.952878 -0.000017 0.000068 0.000005 -0.000002 0.000001 9.104592 -0.042867 -1.865214 82.438532 -19.624821 17.232682 3.150053 0.000189 -0.000099 86.646837 -13.110032 12.372089 2.950020 0.000175 -0.000070 86.470284 -10.404095 9.786854 2.644319 0.000030 0.000056 0.000001 0.000002 -0.000000 8.077847 -0.486755 -3.806386 72.115610 -21.248206 16.011316 3.600014 0.000133 0.014582 70.736950 -18.253938 13.400885 2.100024 0.000154 0.007543 71.425173 -12.846296 9.609045 2.125502 -0.000016 0.007515 -0.000000 0.000003 0.000000 -8.207786 -6.751667 -1.599560 -0.077001 -0.000003 0.000080 -0.000002 -44.370110 0.345938 0.153719 -0.000000 -0.000000 0.000000 -44.423679 -3.043532 -0.076700 0.000000 -0.000002 -0.000006 -8.728667 10.710559 -0.000009 -0.000000 -0.000000 -0.000001 -0.000679 9.278123 0.000000 -0.000000 -0.000000 8.207792 -6.751710 -1.599556 -0.074518 -0.000003 0.000081 -0.000002 -44.370014 0.346960 0.148822 0.000002 0.000000 -0.000001 -44.423664 -3.044403 -0.074314 0.000000 -0.000002 -0.000004 -8.728671 10.710558 0.000007 -0.000000 -0.000000 0.000000 -0.000680 9.278137 -0.000000 0.000000 -0.000001 
